<mxfile host="Electron" agent="Mozilla/5.0 (X11; Linux x86_64) AppleWebKit/537.36 (KHTML, like Gecko) draw.io/28.1.2 Chrome/138.0.7204.243 Electron/37.4.0 Safari/537.36" version="28.1.2" pages="2">
  <diagram name="Page-1" id="fNC3i6Xuzc3MCXyXlWks">
    <mxGraphModel dx="2006" dy="454" grid="1" gridSize="10" guides="1" tooltips="1" connect="1" arrows="1" fold="1" page="0" pageScale="1" pageWidth="5000" pageHeight="5000" math="0" shadow="0">
      <root>
        <mxCell id="0" />
        <mxCell id="1" parent="0" />
        <mxCell id="ncd-tM1S4kXMfJUIn02m-9" style="edgeStyle=orthogonalEdgeStyle;rounded=0;orthogonalLoop=1;jettySize=auto;html=1;entryX=0.5;entryY=1;entryDx=0;entryDy=0;" parent="1" source="ncd-tM1S4kXMfJUIn02m-1" target="ncd-tM1S4kXMfJUIn02m-8" edge="1">
          <mxGeometry relative="1" as="geometry" />
        </mxCell>
        <mxCell id="ncd-tM1S4kXMfJUIn02m-16" style="edgeStyle=orthogonalEdgeStyle;rounded=0;orthogonalLoop=1;jettySize=auto;html=1;entryX=0.5;entryY=1;entryDx=0;entryDy=0;" parent="1" source="ncd-tM1S4kXMfJUIn02m-1" target="ncd-tM1S4kXMfJUIn02m-10" edge="1">
          <mxGeometry relative="1" as="geometry" />
        </mxCell>
        <mxCell id="ncd-tM1S4kXMfJUIn02m-1" value="Espacio de parqueo" style="rounded=1;whiteSpace=wrap;html=1;" parent="1" vertex="1">
          <mxGeometry x="140" y="350" width="120" height="60" as="geometry" />
        </mxCell>
        <mxCell id="ncd-tM1S4kXMfJUIn02m-21" style="edgeStyle=orthogonalEdgeStyle;rounded=0;orthogonalLoop=1;jettySize=auto;html=1;entryX=0.5;entryY=0;entryDx=0;entryDy=0;" parent="1" source="ncd-tM1S4kXMfJUIn02m-2" target="ncd-tM1S4kXMfJUIn02m-20" edge="1">
          <mxGeometry relative="1" as="geometry" />
        </mxCell>
        <mxCell id="ncd-tM1S4kXMfJUIn02m-25" style="edgeStyle=orthogonalEdgeStyle;rounded=0;orthogonalLoop=1;jettySize=auto;html=1;entryX=0.5;entryY=0;entryDx=0;entryDy=0;" parent="1" source="ncd-tM1S4kXMfJUIn02m-2" target="ncd-tM1S4kXMfJUIn02m-24" edge="1">
          <mxGeometry relative="1" as="geometry" />
        </mxCell>
        <mxCell id="ncd-tM1S4kXMfJUIn02m-2" value="Propietario" style="rounded=1;whiteSpace=wrap;html=1;" parent="1" vertex="1">
          <mxGeometry x="140" y="670" width="120" height="60" as="geometry" />
        </mxCell>
        <mxCell id="ncd-tM1S4kXMfJUIn02m-31" style="edgeStyle=orthogonalEdgeStyle;rounded=0;orthogonalLoop=1;jettySize=auto;html=1;entryX=0.5;entryY=1;entryDx=0;entryDy=0;" parent="1" source="ncd-tM1S4kXMfJUIn02m-4" target="ncd-tM1S4kXMfJUIn02m-29" edge="1">
          <mxGeometry relative="1" as="geometry" />
        </mxCell>
        <mxCell id="ncd-tM1S4kXMfJUIn02m-32" style="edgeStyle=orthogonalEdgeStyle;rounded=0;orthogonalLoop=1;jettySize=auto;html=1;entryX=0.5;entryY=1;entryDx=0;entryDy=0;" parent="1" source="ncd-tM1S4kXMfJUIn02m-4" target="ncd-tM1S4kXMfJUIn02m-30" edge="1">
          <mxGeometry relative="1" as="geometry" />
        </mxCell>
        <mxCell id="ncd-tM1S4kXMfJUIn02m-4" value="Arrendatario" style="rounded=1;whiteSpace=wrap;html=1;" parent="1" vertex="1">
          <mxGeometry x="-540" y="350" width="120" height="60" as="geometry" />
        </mxCell>
        <mxCell id="ncd-tM1S4kXMfJUIn02m-5" value="numero unico" style="ellipse;whiteSpace=wrap;html=1;align=center;fontStyle=4;" parent="1" vertex="1">
          <mxGeometry x="100" y="250" width="100" height="40" as="geometry" />
        </mxCell>
        <mxCell id="ncd-tM1S4kXMfJUIn02m-7" style="edgeStyle=orthogonalEdgeStyle;rounded=0;orthogonalLoop=1;jettySize=auto;html=1;entryX=0.57;entryY=1.046;entryDx=0;entryDy=0;entryPerimeter=0;" parent="1" source="ncd-tM1S4kXMfJUIn02m-1" target="ncd-tM1S4kXMfJUIn02m-5" edge="1">
          <mxGeometry relative="1" as="geometry" />
        </mxCell>
        <mxCell id="ncd-tM1S4kXMfJUIn02m-8" value="tipo de espacio" style="ellipse;whiteSpace=wrap;html=1;align=center;" parent="1" vertex="1">
          <mxGeometry x="230" y="240" width="100" height="40" as="geometry" />
        </mxCell>
        <mxCell id="ncd-tM1S4kXMfJUIn02m-10" value="Ubicacion" style="ellipse;whiteSpace=wrap;html=1;align=center;" parent="1" vertex="1">
          <mxGeometry x="400" y="310" width="100" height="40" as="geometry" />
        </mxCell>
        <mxCell id="ncd-tM1S4kXMfJUIn02m-11" value="piso" style="ellipse;whiteSpace=wrap;html=1;align=center;" parent="1" vertex="1">
          <mxGeometry x="350" y="220" width="100" height="40" as="geometry" />
        </mxCell>
        <mxCell id="ncd-tM1S4kXMfJUIn02m-12" value="numero" style="ellipse;whiteSpace=wrap;html=1;align=center;" parent="1" vertex="1">
          <mxGeometry x="480" y="220" width="100" height="40" as="geometry" />
        </mxCell>
        <mxCell id="ncd-tM1S4kXMfJUIn02m-13" style="edgeStyle=orthogonalEdgeStyle;rounded=0;orthogonalLoop=1;jettySize=auto;html=1;entryX=0.598;entryY=0.994;entryDx=0;entryDy=0;entryPerimeter=0;" parent="1" source="ncd-tM1S4kXMfJUIn02m-10" target="ncd-tM1S4kXMfJUIn02m-11" edge="1">
          <mxGeometry relative="1" as="geometry" />
        </mxCell>
        <mxCell id="ncd-tM1S4kXMfJUIn02m-14" style="edgeStyle=orthogonalEdgeStyle;rounded=0;orthogonalLoop=1;jettySize=auto;html=1;entryX=0.38;entryY=1.011;entryDx=0;entryDy=0;entryPerimeter=0;" parent="1" source="ncd-tM1S4kXMfJUIn02m-10" target="ncd-tM1S4kXMfJUIn02m-12" edge="1">
          <mxGeometry relative="1" as="geometry" />
        </mxCell>
        <mxCell id="ncd-tM1S4kXMfJUIn02m-20" value="Documento" style="ellipse;whiteSpace=wrap;html=1;align=center;fontStyle=4;" parent="1" vertex="1">
          <mxGeometry x="50" y="780" width="100" height="40" as="geometry" />
        </mxCell>
        <mxCell id="ncd-tM1S4kXMfJUIn02m-22" value="Nombre completo" style="ellipse;whiteSpace=wrap;html=1;align=center;" parent="1" vertex="1">
          <mxGeometry x="200" y="760" width="110" height="40" as="geometry" />
        </mxCell>
        <mxCell id="ncd-tM1S4kXMfJUIn02m-23" style="edgeStyle=orthogonalEdgeStyle;rounded=0;orthogonalLoop=1;jettySize=auto;html=1;entryX=0.443;entryY=0.02;entryDx=0;entryDy=0;entryPerimeter=0;" parent="1" source="ncd-tM1S4kXMfJUIn02m-2" target="ncd-tM1S4kXMfJUIn02m-22" edge="1">
          <mxGeometry relative="1" as="geometry" />
        </mxCell>
        <mxCell id="ncd-tM1S4kXMfJUIn02m-24" value="Numeros de contacto" style="ellipse;shape=doubleEllipse;margin=3;whiteSpace=wrap;html=1;align=center;" parent="1" vertex="1">
          <mxGeometry x="350" y="760" width="110" height="50" as="geometry" />
        </mxCell>
        <mxCell id="ncd-tM1S4kXMfJUIn02m-26" value="pertenece / es dueÃ±o de" style="shape=rhombus;perimeter=rhombusPerimeter;whiteSpace=wrap;html=1;align=center;" parent="1" vertex="1">
          <mxGeometry x="110" y="500" width="180" height="90" as="geometry" />
        </mxCell>
        <mxCell id="ncd-tM1S4kXMfJUIn02m-27" value="" style="endArrow=none;html=1;rounded=0;exitX=0.458;exitY=1.036;exitDx=0;exitDy=0;exitPerimeter=0;startArrow=ERoneToMany;startFill=0;" parent="1" source="ncd-tM1S4kXMfJUIn02m-1" target="ncd-tM1S4kXMfJUIn02m-26" edge="1">
          <mxGeometry relative="1" as="geometry">
            <mxPoint x="350" y="580" as="sourcePoint" />
            <mxPoint x="510" y="580" as="targetPoint" />
          </mxGeometry>
        </mxCell>
        <mxCell id="ncd-tM1S4kXMfJUIn02m-28" value="" style="endArrow=ERmandOne;html=1;rounded=0;exitX=0.5;exitY=1;exitDx=0;exitDy=0;entryX=0.5;entryY=0;entryDx=0;entryDy=0;endFill=0;" parent="1" source="ncd-tM1S4kXMfJUIn02m-26" target="ncd-tM1S4kXMfJUIn02m-2" edge="1">
          <mxGeometry relative="1" as="geometry">
            <mxPoint x="404" y="530" as="sourcePoint" />
            <mxPoint x="400" y="639" as="targetPoint" />
          </mxGeometry>
        </mxCell>
        <mxCell id="ncd-tM1S4kXMfJUIn02m-29" value="nombre" style="ellipse;whiteSpace=wrap;html=1;align=center;" parent="1" vertex="1">
          <mxGeometry x="-570" y="250" width="100" height="40" as="geometry" />
        </mxCell>
        <mxCell id="ncd-tM1S4kXMfJUIn02m-30" value="documento" style="ellipse;whiteSpace=wrap;html=1;align=center;fontStyle=4;" parent="1" vertex="1">
          <mxGeometry x="-460" y="250" width="100" height="40" as="geometry" />
        </mxCell>
        <mxCell id="ncd-tM1S4kXMfJUIn02m-33" value="tipo" style="ellipse;whiteSpace=wrap;html=1;align=center;" parent="1" vertex="1">
          <mxGeometry x="-660" y="290" width="100" height="40" as="geometry" />
        </mxCell>
        <mxCell id="ncd-tM1S4kXMfJUIn02m-34" style="edgeStyle=orthogonalEdgeStyle;rounded=0;orthogonalLoop=1;jettySize=auto;html=1;entryX=0.573;entryY=1.037;entryDx=0;entryDy=0;entryPerimeter=0;" parent="1" source="ncd-tM1S4kXMfJUIn02m-4" target="ncd-tM1S4kXMfJUIn02m-33" edge="1">
          <mxGeometry relative="1" as="geometry" />
        </mxCell>
        <mxCell id="ncd-tM1S4kXMfJUIn02m-40" style="edgeStyle=orthogonalEdgeStyle;rounded=0;orthogonalLoop=1;jettySize=auto;html=1;entryX=0.5;entryY=1;entryDx=0;entryDy=0;" parent="1" source="ncd-tM1S4kXMfJUIn02m-35" target="ncd-tM1S4kXMfJUIn02m-38" edge="1">
          <mxGeometry relative="1" as="geometry" />
        </mxCell>
        <mxCell id="ncd-tM1S4kXMfJUIn02m-41" style="edgeStyle=orthogonalEdgeStyle;rounded=0;orthogonalLoop=1;jettySize=auto;html=1;entryX=0.5;entryY=1;entryDx=0;entryDy=0;" parent="1" source="ncd-tM1S4kXMfJUIn02m-35" target="ncd-tM1S4kXMfJUIn02m-39" edge="1">
          <mxGeometry relative="1" as="geometry" />
        </mxCell>
        <mxCell id="ncd-tM1S4kXMfJUIn02m-35" value="Arrendamiento" style="shape=associativeEntity;whiteSpace=wrap;html=1;align=center;" parent="1" vertex="1">
          <mxGeometry x="-200" y="350" width="140" height="60" as="geometry" />
        </mxCell>
        <mxCell id="ncd-tM1S4kXMfJUIn02m-36" value="" style="endArrow=ERoneToMany;html=1;rounded=0;exitX=1;exitY=0.5;exitDx=0;exitDy=0;entryX=0;entryY=0.5;entryDx=0;entryDy=0;startArrow=none;startFill=0;endFill=0;" parent="1" source="ncd-tM1S4kXMfJUIn02m-4" target="ncd-tM1S4kXMfJUIn02m-35" edge="1">
          <mxGeometry relative="1" as="geometry">
            <mxPoint x="-320" y="530" as="sourcePoint" />
            <mxPoint x="-210" y="410" as="targetPoint" />
          </mxGeometry>
        </mxCell>
        <mxCell id="ncd-tM1S4kXMfJUIn02m-37" value="" style="endArrow=none;html=1;rounded=0;exitX=1;exitY=0.5;exitDx=0;exitDy=0;entryX=0;entryY=0.5;entryDx=0;entryDy=0;startArrow=ERzeroToMany;startFill=0;" parent="1" source="ncd-tM1S4kXMfJUIn02m-35" target="ncd-tM1S4kXMfJUIn02m-1" edge="1">
          <mxGeometry relative="1" as="geometry">
            <mxPoint x="-260" y="540" as="sourcePoint" />
            <mxPoint x="-20" y="530" as="targetPoint" />
          </mxGeometry>
        </mxCell>
        <mxCell id="ncd-tM1S4kXMfJUIn02m-38" value="Fecha inicio" style="ellipse;whiteSpace=wrap;html=1;align=center;" parent="1" vertex="1">
          <mxGeometry x="-230" y="240" width="100" height="40" as="geometry" />
        </mxCell>
        <mxCell id="ncd-tM1S4kXMfJUIn02m-39" value="Fecha fin" style="ellipse;whiteSpace=wrap;html=1;align=center;" parent="1" vertex="1">
          <mxGeometry x="-80" y="240" width="100" height="40" as="geometry" />
        </mxCell>
        <mxCell id="oOuqt9EQtKPofT8COSp4-1" value="arrienda" style="shape=rhombus;perimeter=rhombusPerimeter;whiteSpace=wrap;html=1;align=center;" parent="1" vertex="1">
          <mxGeometry x="-240" y="540" width="120" height="60" as="geometry" />
        </mxCell>
        <mxCell id="oOuqt9EQtKPofT8COSp4-2" value="" style="endArrow=none;html=1;rounded=0;dashed=1;dashPattern=1 2;entryX=0;entryY=0.5;entryDx=0;entryDy=0;exitX=1;exitY=0.5;exitDx=0;exitDy=0;" parent="1" source="oOuqt9EQtKPofT8COSp4-1" target="ncd-tM1S4kXMfJUIn02m-2" edge="1">
          <mxGeometry relative="1" as="geometry">
            <mxPoint x="-290" y="620" as="sourcePoint" />
            <mxPoint x="-130" y="620" as="targetPoint" />
          </mxGeometry>
        </mxCell>
        <mxCell id="oOuqt9EQtKPofT8COSp4-3" value="" style="resizable=0;html=1;whiteSpace=wrap;align=right;verticalAlign=bottom;" parent="oOuqt9EQtKPofT8COSp4-2" connectable="0" vertex="1">
          <mxGeometry x="1" relative="1" as="geometry" />
        </mxCell>
        <mxCell id="oOuqt9EQtKPofT8COSp4-6" value="" style="endArrow=none;html=1;rounded=0;dashed=1;dashPattern=1 2;entryX=0;entryY=0.5;entryDx=0;entryDy=0;exitX=0.5;exitY=1;exitDx=0;exitDy=0;" parent="1" source="ncd-tM1S4kXMfJUIn02m-4" target="oOuqt9EQtKPofT8COSp4-1" edge="1">
          <mxGeometry relative="1" as="geometry">
            <mxPoint x="-290" y="560" as="sourcePoint" />
            <mxPoint x="200" y="630" as="targetPoint" />
          </mxGeometry>
        </mxCell>
        <mxCell id="oOuqt9EQtKPofT8COSp4-7" value="" style="resizable=0;html=1;whiteSpace=wrap;align=right;verticalAlign=bottom;" parent="oOuqt9EQtKPofT8COSp4-6" connectable="0" vertex="1">
          <mxGeometry x="1" relative="1" as="geometry" />
        </mxCell>
      </root>
    </mxGraphModel>
  </diagram>
  <diagram id="H4HaQPU-yv4aTKIQQDFF" name="Page-2">
    <mxGraphModel dx="1826" dy="1243" grid="1" gridSize="10" guides="1" tooltips="1" connect="1" arrows="1" fold="1" page="0" pageScale="1" pageWidth="5000" pageHeight="5000" math="0" shadow="0">
      <root>
        <mxCell id="0" />
        <mxCell id="1" parent="0" />
        <mxCell id="TDBz_PjUuZDuHDB9N7YF-4" value="" style="rounded=0;whiteSpace=wrap;html=1;" vertex="1" parent="1">
          <mxGeometry x="-40" y="-290" width="1250" height="760" as="geometry" />
        </mxCell>
        <mxCell id="ADhwlbQkgksSMYt5wG4c-37" style="edgeStyle=orthogonalEdgeStyle;rounded=0;orthogonalLoop=1;jettySize=auto;html=1;noEdgeStyle=1;endArrow=none;endFill=0;entryX=0.919;entryY=0.5;entryDx=0;entryDy=0;startArrow=ERmandOne;startFill=0;entryPerimeter=0;exitX=0;exitY=0.5;exitDx=0;exitDy=0;exitPerimeter=0;" parent="1" source="ADhwlbQkgksSMYt5wG4c-5" target="ADhwlbQkgksSMYt5wG4c-42" edge="1">
          <mxGeometry relative="1" as="geometry">
            <mxPoint x="870" y="359.9960000000001" as="targetPoint" />
            <mxPoint x="905.7175502742234" y="309.98" as="sourcePoint" />
          </mxGeometry>
        </mxCell>
        <mxCell id="ADhwlbQkgksSMYt5wG4c-11" style="edgeStyle=orthogonalEdgeStyle;rounded=0;orthogonalLoop=1;jettySize=auto;html=1;entryX=0.5;entryY=1;entryDx=0;entryDy=0;noEdgeStyle=1;" parent="1" source="ADhwlbQkgksSMYt5wG4c-4" target="ADhwlbQkgksSMYt5wG4c-9" edge="1">
          <mxGeometry relative="1" as="geometry" />
        </mxCell>
        <mxCell id="ADhwlbQkgksSMYt5wG4c-16" style="edgeStyle=orthogonalEdgeStyle;rounded=0;orthogonalLoop=1;jettySize=auto;html=1;entryX=0.5;entryY=1;entryDx=0;entryDy=0;noEdgeStyle=1;" parent="1" source="ADhwlbQkgksSMYt5wG4c-4" target="ADhwlbQkgksSMYt5wG4c-14" edge="1">
          <mxGeometry relative="1" as="geometry" />
        </mxCell>
        <mxCell id="ADhwlbQkgksSMYt5wG4c-17" style="edgeStyle=orthogonalEdgeStyle;rounded=0;orthogonalLoop=1;jettySize=auto;html=1;entryX=0.5;entryY=1;entryDx=0;entryDy=0;noEdgeStyle=1;" parent="1" source="ADhwlbQkgksSMYt5wG4c-4" target="ADhwlbQkgksSMYt5wG4c-12" edge="1">
          <mxGeometry relative="1" as="geometry" />
        </mxCell>
        <mxCell id="ADhwlbQkgksSMYt5wG4c-18" style="edgeStyle=orthogonalEdgeStyle;rounded=0;orthogonalLoop=1;jettySize=auto;html=1;entryX=0.5;entryY=1;entryDx=0;entryDy=0;noEdgeStyle=1;" parent="1" source="ADhwlbQkgksSMYt5wG4c-4" target="ADhwlbQkgksSMYt5wG4c-13" edge="1">
          <mxGeometry relative="1" as="geometry" />
        </mxCell>
        <mxCell id="ADhwlbQkgksSMYt5wG4c-4" value="Libro&amp;nbsp;" style="whiteSpace=wrap;html=1;align=center;strokeColor=default;" parent="1" vertex="1">
          <mxGeometry x="102" y="-130" width="100" height="40" as="geometry" />
        </mxCell>
        <mxCell id="ADhwlbQkgksSMYt5wG4c-22" style="edgeStyle=orthogonalEdgeStyle;rounded=0;orthogonalLoop=1;jettySize=auto;html=1;entryX=0.5;entryY=1;entryDx=0;entryDy=0;noEdgeStyle=1;" parent="1" source="ADhwlbQkgksSMYt5wG4c-5" target="ADhwlbQkgksSMYt5wG4c-20" edge="1">
          <mxGeometry relative="1" as="geometry" />
        </mxCell>
        <mxCell id="ADhwlbQkgksSMYt5wG4c-23" style="edgeStyle=orthogonalEdgeStyle;rounded=0;orthogonalLoop=1;jettySize=auto;html=1;entryX=0.5;entryY=1;entryDx=0;entryDy=0;noEdgeStyle=1;" parent="1" source="ADhwlbQkgksSMYt5wG4c-5" target="ADhwlbQkgksSMYt5wG4c-21" edge="1">
          <mxGeometry relative="1" as="geometry" />
        </mxCell>
        <mxCell id="ADhwlbQkgksSMYt5wG4c-24" style="edgeStyle=orthogonalEdgeStyle;rounded=0;orthogonalLoop=1;jettySize=auto;html=1;entryX=0.5;entryY=1;entryDx=0;entryDy=0;noEdgeStyle=1;" parent="1" source="ADhwlbQkgksSMYt5wG4c-5" target="ADhwlbQkgksSMYt5wG4c-19" edge="1">
          <mxGeometry relative="1" as="geometry" />
        </mxCell>
        <mxCell id="ADhwlbQkgksSMYt5wG4c-5" value="Usuario&amp;nbsp;" style="whiteSpace=wrap;html=1;align=center;" parent="1" vertex="1">
          <mxGeometry x="950" y="210" width="100" height="40" as="geometry" />
        </mxCell>
        <mxCell id="ADhwlbQkgksSMYt5wG4c-30" style="edgeStyle=orthogonalEdgeStyle;rounded=0;orthogonalLoop=1;jettySize=auto;html=1;entryX=1;entryY=1;entryDx=0;entryDy=0;noEdgeStyle=1;" parent="1" source="ADhwlbQkgksSMYt5wG4c-6" target="ADhwlbQkgksSMYt5wG4c-26" edge="1">
          <mxGeometry relative="1" as="geometry" />
        </mxCell>
        <mxCell id="ADhwlbQkgksSMYt5wG4c-31" style="edgeStyle=orthogonalEdgeStyle;rounded=0;orthogonalLoop=1;jettySize=auto;html=1;entryX=0.5;entryY=0;entryDx=0;entryDy=0;noEdgeStyle=1;" parent="1" source="ADhwlbQkgksSMYt5wG4c-6" target="ADhwlbQkgksSMYt5wG4c-27" edge="1">
          <mxGeometry relative="1" as="geometry" />
        </mxCell>
        <mxCell id="ADhwlbQkgksSMYt5wG4c-32" style="edgeStyle=orthogonalEdgeStyle;rounded=0;orthogonalLoop=1;jettySize=auto;html=1;noEdgeStyle=1;" parent="1" source="ADhwlbQkgksSMYt5wG4c-6" target="ADhwlbQkgksSMYt5wG4c-28" edge="1">
          <mxGeometry relative="1" as="geometry" />
        </mxCell>
        <mxCell id="ADhwlbQkgksSMYt5wG4c-33" style="edgeStyle=orthogonalEdgeStyle;rounded=0;orthogonalLoop=1;jettySize=auto;html=1;entryX=0.59;entryY=0.225;entryDx=0;entryDy=0;noEdgeStyle=1;entryPerimeter=0;" parent="1" source="ADhwlbQkgksSMYt5wG4c-6" target="ADhwlbQkgksSMYt5wG4c-41" edge="1">
          <mxGeometry relative="1" as="geometry">
            <mxPoint x="421" y="400.9999999999998" as="targetPoint" />
          </mxGeometry>
        </mxCell>
        <mxCell id="ADhwlbQkgksSMYt5wG4c-6" value="PrÃ©stamo&amp;nbsp;" style="shape=associativeEntity;whiteSpace=wrap;html=1;align=center;" parent="1" vertex="1">
          <mxGeometry x="331" y="270" width="140" height="60" as="geometry" />
        </mxCell>
        <mxCell id="ADhwlbQkgksSMYt5wG4c-38" style="edgeStyle=orthogonalEdgeStyle;rounded=0;orthogonalLoop=1;jettySize=auto;html=1;entryX=1;entryY=0.25;entryDx=0;entryDy=0;noEdgeStyle=1;endArrow=ERzeroToMany;endFill=0;startArrow=none;startFill=0;exitX=0.038;exitY=0.496;exitDx=0;exitDy=0;exitPerimeter=0;" parent="1" source="ADhwlbQkgksSMYt5wG4c-42" target="ADhwlbQkgksSMYt5wG4c-6" edge="1">
          <mxGeometry relative="1" as="geometry" />
        </mxCell>
        <mxCell id="ADhwlbQkgksSMYt5wG4c-9" value="autores" style="ellipse;shape=doubleEllipse;margin=3;whiteSpace=wrap;html=1;align=center;" parent="1" vertex="1">
          <mxGeometry x="31" y="-260" width="100" height="40" as="geometry" />
        </mxCell>
        <mxCell id="ADhwlbQkgksSMYt5wG4c-12" value="tÃ­tulo" style="ellipse;whiteSpace=wrap;html=1;align=center;" parent="1" vertex="1">
          <mxGeometry x="-8" y="-150" width="100" height="40" as="geometry" />
        </mxCell>
        <mxCell id="ADhwlbQkgksSMYt5wG4c-13" value="editorial" style="ellipse;whiteSpace=wrap;html=1;align=center;" parent="1" vertex="1">
          <mxGeometry x="-8" y="-60" width="100" height="40" as="geometry" />
        </mxCell>
        <mxCell id="ADhwlbQkgksSMYt5wG4c-14" value="ISBN" style="ellipse;whiteSpace=wrap;html=1;align=center;fontStyle=4;" parent="1" vertex="1">
          <mxGeometry x="162" y="-210" width="100" height="40" as="geometry" />
        </mxCell>
        <mxCell id="ADhwlbQkgksSMYt5wG4c-19" value="&amp;nbsp;nombre" style="ellipse;whiteSpace=wrap;html=1;align=center;" parent="1" vertex="1">
          <mxGeometry x="990" y="130" width="100" height="40" as="geometry" />
        </mxCell>
        <mxCell id="ADhwlbQkgksSMYt5wG4c-20" value="cÃ©dula" style="ellipse;whiteSpace=wrap;html=1;align=center;fontStyle=4;" parent="1" vertex="1">
          <mxGeometry x="1080" y="210" width="100" height="40" as="geometry" />
        </mxCell>
        <mxCell id="ADhwlbQkgksSMYt5wG4c-21" value="edad" style="ellipse;whiteSpace=wrap;html=1;align=center;" parent="1" vertex="1">
          <mxGeometry x="1030" y="290" width="100" height="40" as="geometry" />
        </mxCell>
        <mxCell id="ADhwlbQkgksSMYt5wG4c-27" value="fecha de devoluciÃ³n prevista" style="ellipse;whiteSpace=wrap;html=1;align=center;" parent="1" vertex="1">
          <mxGeometry x="131" y="310" width="170" height="50" as="geometry" />
        </mxCell>
        <mxCell id="ADhwlbQkgksSMYt5wG4c-26" value="fecha de inicio" style="ellipse;whiteSpace=wrap;html=1;align=center;" parent="1" vertex="1">
          <mxGeometry x="281" y="371" width="100" height="40" as="geometry" />
        </mxCell>
        <mxCell id="ADhwlbQkgksSMYt5wG4c-28" value="fecha de devoluciÃ³n real" style="ellipse;whiteSpace=wrap;html=1;align=center;" parent="1" vertex="1">
          <mxGeometry x="451" y="341" width="140" height="60" as="geometry" />
        </mxCell>
        <mxCell id="ADhwlbQkgksSMYt5wG4c-41" value="estado" style="ellipse;whiteSpace=wrap;html=1;align=center;dashed=1;" parent="1" vertex="1">
          <mxGeometry x="371" y="401" width="100" height="40" as="geometry" />
        </mxCell>
        <mxCell id="ADhwlbQkgksSMYt5wG4c-42" value="pudo haber realizado / es realizado por" style="shape=rhombus;perimeter=rhombusPerimeter;whiteSpace=wrap;html=1;align=center;" parent="1" vertex="1">
          <mxGeometry x="611" y="209" width="260" height="121" as="geometry" />
        </mxCell>
        <mxCell id="ADhwlbQkgksSMYt5wG4c-48" style="edgeStyle=orthogonalEdgeStyle;rounded=0;orthogonalLoop=1;jettySize=auto;html=1;entryX=0.5;entryY=1;entryDx=0;entryDy=0;" parent="1" source="ADhwlbQkgksSMYt5wG4c-45" target="ADhwlbQkgksSMYt5wG4c-46" edge="1">
          <mxGeometry relative="1" as="geometry" />
        </mxCell>
        <mxCell id="ep1lvZJtTffbiMoAw_Pi-9" style="edgeStyle=orthogonalEdgeStyle;rounded=0;orthogonalLoop=1;jettySize=auto;html=1;entryX=0.5;entryY=1;entryDx=0;entryDy=0;" parent="1" source="ADhwlbQkgksSMYt5wG4c-45" target="ep1lvZJtTffbiMoAw_Pi-8" edge="1">
          <mxGeometry relative="1" as="geometry" />
        </mxCell>
        <mxCell id="6RW8YnYi7bEzu855v4lK-2" style="edgeStyle=orthogonalEdgeStyle;rounded=0;orthogonalLoop=1;jettySize=auto;html=1;entryX=0;entryY=0.5;entryDx=0;entryDy=0;" parent="1" source="ADhwlbQkgksSMYt5wG4c-45" target="6RW8YnYi7bEzu855v4lK-1" edge="1">
          <mxGeometry relative="1" as="geometry" />
        </mxCell>
        <mxCell id="ADhwlbQkgksSMYt5wG4c-45" value="Ejemplar" style="whiteSpace=wrap;html=1;align=center;" parent="1" vertex="1">
          <mxGeometry x="581" y="-170" width="100" height="40" as="geometry" />
        </mxCell>
        <mxCell id="ADhwlbQkgksSMYt5wG4c-46" value="cÃ³digo de barras" style="ellipse;whiteSpace=wrap;html=1;align=center;fontStyle=4;" parent="1" vertex="1">
          <mxGeometry x="681" y="-280" width="120" height="49" as="geometry" />
        </mxCell>
        <mxCell id="ep1lvZJtTffbiMoAw_Pi-4" style="edgeStyle=orthogonalEdgeStyle;rounded=0;orthogonalLoop=1;jettySize=auto;html=1;entryX=0;entryY=0.5;entryDx=0;entryDy=0;endArrow=ERzeroToMany;endFill=0;" parent="1" source="ep1lvZJtTffbiMoAw_Pi-1" target="ADhwlbQkgksSMYt5wG4c-45" edge="1">
          <mxGeometry relative="1" as="geometry" />
        </mxCell>
        <mxCell id="ep1lvZJtTffbiMoAw_Pi-6" style="edgeStyle=orthogonalEdgeStyle;rounded=0;orthogonalLoop=1;jettySize=auto;html=1;entryX=1;entryY=0.25;entryDx=0;entryDy=0;endArrow=ERmandOne;endFill=0;" parent="1" source="ep1lvZJtTffbiMoAw_Pi-1" target="ADhwlbQkgksSMYt5wG4c-4" edge="1">
          <mxGeometry relative="1" as="geometry" />
        </mxCell>
        <mxCell id="ep1lvZJtTffbiMoAw_Pi-1" value="tiene / estÃ¡ asociado a" style="shape=rhombus;perimeter=rhombusPerimeter;whiteSpace=wrap;html=1;align=center;" parent="1" vertex="1">
          <mxGeometry x="302" y="-169" width="179" height="79" as="geometry" />
        </mxCell>
        <mxCell id="ep1lvZJtTffbiMoAw_Pi-8" value="condicion" style="ellipse;whiteSpace=wrap;html=1;align=center;" parent="1" vertex="1">
          <mxGeometry x="520" y="-275.5" width="100" height="40" as="geometry" />
        </mxCell>
        <mxCell id="6RW8YnYi7bEzu855v4lK-5" style="edgeStyle=orthogonalEdgeStyle;rounded=0;orthogonalLoop=1;jettySize=auto;html=1;entryX=1;entryY=0.5;entryDx=0;entryDy=0;" parent="1" source="ep1lvZJtTffbiMoAw_Pi-11" target="6RW8YnYi7bEzu855v4lK-3" edge="1">
          <mxGeometry relative="1" as="geometry" />
        </mxCell>
        <mxCell id="6RW8YnYi7bEzu855v4lK-6" style="edgeStyle=orthogonalEdgeStyle;rounded=0;orthogonalLoop=1;jettySize=auto;html=1;entryX=1;entryY=0.5;entryDx=0;entryDy=0;" parent="1" source="ep1lvZJtTffbiMoAw_Pi-11" target="6RW8YnYi7bEzu855v4lK-4" edge="1">
          <mxGeometry relative="1" as="geometry" />
        </mxCell>
        <mxCell id="TDBz_PjUuZDuHDB9N7YF-3" style="edgeStyle=orthogonalEdgeStyle;rounded=0;orthogonalLoop=1;jettySize=auto;html=1;entryX=1;entryY=0.5;entryDx=0;entryDy=0;" edge="1" parent="1" source="ep1lvZJtTffbiMoAw_Pi-11" target="TDBz_PjUuZDuHDB9N7YF-2">
          <mxGeometry relative="1" as="geometry" />
        </mxCell>
        <mxCell id="ep1lvZJtTffbiMoAw_Pi-11" value="detalle de prÃ©stamo" style="shape=ext;margin=3;double=1;whiteSpace=wrap;html=1;align=center;" parent="1" vertex="1">
          <mxGeometry x="321.5" y="-30" width="140" height="60" as="geometry" />
        </mxCell>
        <mxCell id="ep1lvZJtTffbiMoAw_Pi-14" style="edgeStyle=orthogonalEdgeStyle;rounded=0;orthogonalLoop=1;jettySize=auto;html=1;entryX=0.5;entryY=1;entryDx=0;entryDy=0;fontFamily=Helvetica;fontSize=12;fontColor=default;endArrow=ERoneToMany;endFill=0;" parent="1" source="ep1lvZJtTffbiMoAw_Pi-13" target="ep1lvZJtTffbiMoAw_Pi-11" edge="1">
          <mxGeometry relative="1" as="geometry" />
        </mxCell>
        <mxCell id="ep1lvZJtTffbiMoAw_Pi-15" style="edgeStyle=orthogonalEdgeStyle;rounded=0;orthogonalLoop=1;jettySize=auto;html=1;fontFamily=Helvetica;fontSize=12;fontColor=default;endArrow=ERmandOne;endFill=0;" parent="1" source="ep1lvZJtTffbiMoAw_Pi-13" target="ADhwlbQkgksSMYt5wG4c-6" edge="1">
          <mxGeometry relative="1" as="geometry" />
        </mxCell>
        <mxCell id="ep1lvZJtTffbiMoAw_Pi-13" value="pertenece a / tiene" style="shape=rhombus;double=1;perimeter=rhombusPerimeter;whiteSpace=wrap;html=1;align=center;strokeColor=default;verticalAlign=middle;fontFamily=Helvetica;fontSize=12;fontColor=default;fillColor=default;" parent="1" vertex="1">
          <mxGeometry x="316.75" y="110" width="168.5" height="71" as="geometry" />
        </mxCell>
        <mxCell id="ep1lvZJtTffbiMoAw_Pi-18" style="edgeStyle=orthogonalEdgeStyle;rounded=0;orthogonalLoop=1;jettySize=auto;html=1;entryX=0.5;entryY=1;entryDx=0;entryDy=0;fontFamily=Helvetica;fontSize=12;fontColor=default;endArrow=ERmandOne;endFill=0;" parent="1" source="ep1lvZJtTffbiMoAw_Pi-16" target="ADhwlbQkgksSMYt5wG4c-45" edge="1">
          <mxGeometry relative="1" as="geometry" />
        </mxCell>
        <mxCell id="ep1lvZJtTffbiMoAw_Pi-19" style="edgeStyle=orthogonalEdgeStyle;rounded=0;orthogonalLoop=1;jettySize=auto;html=1;entryX=1;entryY=0.5;entryDx=0;entryDy=0;fontFamily=Helvetica;fontSize=12;fontColor=default;endArrow=ERzeroToMany;endFill=0;" parent="1" source="ep1lvZJtTffbiMoAw_Pi-16" target="ep1lvZJtTffbiMoAw_Pi-11" edge="1">
          <mxGeometry relative="1" as="geometry" />
        </mxCell>
        <mxCell id="ep1lvZJtTffbiMoAw_Pi-16" value="asocia / estÃ¡ asociado" style="shape=rhombus;double=1;perimeter=rhombusPerimeter;whiteSpace=wrap;html=1;align=center;strokeColor=default;verticalAlign=middle;fontFamily=Helvetica;fontSize=12;fontColor=default;fillColor=default;" parent="1" vertex="1">
          <mxGeometry x="561" y="-50" width="159" height="90" as="geometry" />
        </mxCell>
        <mxCell id="6RW8YnYi7bEzu855v4lK-1" value="estado" style="ellipse;whiteSpace=wrap;html=1;align=center;dashed=1;" parent="1" vertex="1">
          <mxGeometry x="740" y="-180" width="100" height="40" as="geometry" />
        </mxCell>
        <mxCell id="6RW8YnYi7bEzu855v4lK-3" value="condicion inicial" style="ellipse;whiteSpace=wrap;html=1;align=center;dashed=1;" parent="1" vertex="1">
          <mxGeometry x="150" y="-30" width="100" height="40" as="geometry" />
        </mxCell>
        <mxCell id="6RW8YnYi7bEzu855v4lK-4" value="condicion final" style="ellipse;whiteSpace=wrap;html=1;align=center;" parent="1" vertex="1">
          <mxGeometry x="150" y="20" width="100" height="40" as="geometry" />
        </mxCell>
        <mxCell id="TDBz_PjUuZDuHDB9N7YF-2" value="&lt;span style=&quot;border-bottom: 1px dotted&quot;&gt;nÃºmero de lÃ­nea&lt;/span&gt;" style="ellipse;whiteSpace=wrap;html=1;align=center;" vertex="1" parent="1">
          <mxGeometry x="150" y="80" width="100" height="40" as="geometry" />
        </mxCell>
      </root>
    </mxGraphModel>
  </diagram>
</mxfile>
